<svg width="24" height="22" viewBox="0 0 24 22" fill="none" xmlns="http://www.w3.org/2000/svg">
<path d="M10.9393 21.1186C11.5251 21.7044 12.4749 21.7044 13.0607 21.1186L22.6066 11.5727C23.1924 10.9869 23.1924 10.0372 22.6066 9.45138C22.0208 8.86559 21.0711 8.86559 20.4853 9.45138L12 17.9367L3.51472 9.45138C2.92893 8.86559 1.97919 8.86559 1.3934 9.45138C0.807611 10.0372 0.807611 10.9869 1.3934 11.5727L10.9393 21.1186ZM13.5 1.99997C13.5 1.17155 12.8284 0.499973 12 0.499973C11.1716 0.499973 10.5 1.17155 10.5 1.99997H13.5ZM13.5 20.058L13.5 1.99997H10.5L10.5 20.058H13.5Z" fill="white"/>
</svg>
