<svg width="83" height="195" viewBox="0 0 83 195" fill="none" xmlns="http://www.w3.org/2000/svg">
<path d="M81.3734 3.45278C82.1758 3.24655 82.659 2.42893 82.4528 1.62658C82.2465 0.824238 81.4289 0.340991 80.6266 0.547223L81.3734 3.45278ZM60.3673 186.724C61.0432 186.245 61.2028 185.309 60.7239 184.633L52.9185 173.618C52.4396 172.942 51.5033 172.782 50.8274 173.261C50.1515 173.74 49.9918 174.676 50.4708 175.352L57.4089 185.143L47.6179 192.081C46.942 192.56 46.7823 193.497 47.2613 194.173C47.7403 194.849 48.6765 195.008 49.3524 194.529L60.3673 186.724ZM81 2C80.6266 0.547223 80.6256 0.547467 80.6244 0.547789C80.6236 0.548 80.622 0.5484 80.6204 0.548823C80.6171 0.54967 80.6127 0.55083 80.607 0.552305C80.5957 0.555256 80.5796 0.55947 80.5589 0.564965C80.5173 0.575953 80.4571 0.592063 80.3787 0.613433C80.222 0.656171 79.9928 0.719955 79.6958 0.805891C79.1019 0.977756 78.2371 1.23828 77.1401 1.59634C74.9463 2.31235 71.8218 3.41901 68.0768 4.98758C60.5907 8.12302 50.6025 13.1134 40.6058 20.5353C20.5935 35.3933 0.5 60.0475 0.5 99H3.5C3.5 61.2583 22.9065 37.4125 42.3942 22.944C52.1475 15.7027 61.9093 10.8233 69.2357 7.75467C72.8969 6.22123 75.9444 5.14233 78.0709 4.44828C79.134 4.10131 79.9664 3.85068 80.5298 3.68764C80.8114 3.60613 81.0258 3.54653 81.168 3.50775C81.2391 3.48836 81.2922 3.47417 81.3266 3.46506C81.3438 3.4605 81.3564 3.45721 81.3642 3.45517C81.3681 3.45415 81.3709 3.45344 81.3724 3.45304C81.3732 3.45284 81.3734 3.45278 81.3738 3.45268C81.3738 3.45269 81.3734 3.45278 81 2ZM0.5 99C0.5 137.779 15.0628 159.83 29.7869 172.16C37.1237 178.304 44.46 182.002 49.9672 184.166C52.7218 185.248 55.023 185.948 56.644 186.379C57.4546 186.594 58.0957 186.742 58.539 186.838C58.7606 186.885 58.9328 186.92 59.0521 186.943C59.1118 186.954 59.1582 186.963 59.191 186.969C59.2074 186.972 59.2203 186.974 59.2298 186.976C59.2346 186.976 59.2385 186.977 59.2415 186.978C59.243 186.978 59.2446 186.978 59.2453 186.978C59.2467 186.978 59.2478 186.979 59.5 185.5C59.7522 184.021 59.7529 184.021 59.7534 184.022C59.7533 184.022 59.7535 184.022 59.7533 184.022C59.7528 184.021 59.7514 184.021 59.7492 184.021C59.7448 184.02 59.7369 184.019 59.7257 184.017C59.7031 184.013 59.6671 184.006 59.618 183.996C59.5197 183.978 59.369 183.948 59.1695 183.905C58.7705 183.819 58.1762 183.682 57.4146 183.479C55.8911 183.074 53.7 182.409 51.0641 181.373C45.79 179.301 38.7513 175.754 31.7131 169.86C17.6872 158.114 3.5 136.915 3.5 99H0.5Z" fill="black"/>
</svg>
