<svg width="72" height="144" viewBox="0 0 72 144" fill="none" xmlns="http://www.w3.org/2000/svg">
<path fill-rule="evenodd" clip-rule="evenodd" d="M0 5.15138e-05C0 5.15138e-05 44.0078 -0.155455 58.7568 16.6215C74.0726 34.043 74.0424 59.2119 68.938 81.7711C63.807 104.448 66.1866 124.731 44.5 133.5C4 147.5 1.81198e-05 142 1.81198e-05 142L0 5.15138e-05Z" fill="#C4C4C4" fill-opacity="0.75"/>
<path fill-rule="evenodd" clip-rule="evenodd" d="M0 5.15138e-05C0 5.15138e-05 44.0078 -0.155455 58.7568 16.6215C74.0726 34.043 74.0424 59.2119 68.938 81.7711C63.807 104.448 66.1866 124.731 44.5 133.5C4 147.5 1.81198e-05 142 1.81198e-05 142L0 5.15138e-05Z" fill="#C4C4C4" fill-opacity="0.75"/>
</svg>
