<svg width="33" height="33" viewBox="0 0 33 33" fill="none" xmlns="http://www.w3.org/2000/svg">
<path d="M16.5 0C12.1239 0 7.92709 1.73839 4.83274 4.83274C1.73839 7.92709 0 12.1239 0 16.5C0 20.8761 1.73839 25.0729 4.83274 28.1673C7.92709 31.2616 12.1239 33 16.5 33C20.8761 33 25.0729 31.2616 28.1673 28.1673C31.2616 25.0729 33 20.8761 33 16.5C33 12.1239 31.2616 7.92709 28.1673 4.83274C25.0729 1.73839 20.8761 0 16.5 0V0ZM20.8491 29.9516H20.7212C20.6252 29.9571 20.5291 29.9428 20.4387 29.9097C20.3484 29.8766 20.2658 29.8253 20.196 29.7591C20.1315 29.691 20.0813 29.6106 20.0482 29.5228C20.0151 29.4349 19.9999 29.3414 20.0035 29.2476V27.3144C20.0118 26.6722 20.0172 26.0219 20.0172 25.3674C20.015 24.8888 19.9451 24.4129 19.8096 23.9539C19.6813 23.4899 19.4227 23.0723 19.0644 22.7507C20.0227 22.6582 20.9648 22.4405 21.8666 22.1031C22.6273 21.8139 23.3154 21.3614 23.8824 20.7776C24.442 20.1905 24.8586 19.481 25.0992 18.7069C25.392 17.7588 25.5312 16.7701 25.5118 15.7781C25.5171 15.0855 25.396 14.3977 25.1543 13.7486C24.9086 13.0944 24.5373 12.4946 24.0611 11.9831C24.1639 11.7252 24.2386 11.4569 24.2839 11.1829C24.3292 10.9079 24.3526 10.6301 24.3526 10.3524C24.3526 9.99487 24.3114 9.63738 24.2289 9.2895C24.1539 8.93269 24.0523 8.582 23.925 8.24038C23.8764 8.22141 23.8246 8.21207 23.7724 8.21288H23.6211C23.3049 8.21563 22.9941 8.26788 22.6944 8.3655C22.3642 8.46188 22.0412 8.58134 21.7278 8.723C21.416 8.86272 21.1126 9.02018 20.8189 9.19462C20.5232 9.36925 20.262 9.537 20.031 9.69237C17.7179 9.04768 15.2725 9.04768 12.9594 9.69237C12.7014 9.51991 12.4392 9.35394 12.1729 9.19462C11.875 9.01873 11.5664 8.86167 11.2489 8.72437C10.9363 8.57802 10.612 8.45798 10.2795 8.3655C9.98566 8.26843 9.67868 8.21696 9.36925 8.21288H9.218C9.16628 8.21214 9.11491 8.22148 9.06675 8.24038C8.93758 8.58248 8.83192 8.933 8.7505 9.2895C8.67625 9.63875 8.6405 9.99487 8.63912 10.3524C8.63912 10.6301 8.6625 10.9079 8.70925 11.1829C8.75463 11.4565 8.8275 11.7246 8.92925 11.9831C8.45431 12.4953 8.08434 13.0956 7.84025 13.75C7.59726 14.3989 7.47471 15.0866 7.47863 15.7795C7.45939 16.7662 7.59487 17.7498 7.88012 18.6945C8.129 19.4686 8.54425 20.1795 9.09562 20.779C9.66625 21.3593 10.3538 21.8103 11.1114 22.1045C12.0093 22.4483 12.9498 22.6683 13.9068 22.759C13.6395 23.0012 13.4276 23.298 13.2852 23.6294C13.1499 23.9571 13.0574 24.3009 13.0102 24.6524C12.5057 24.8939 11.954 25.0207 11.3946 25.0236C10.8752 25.0444 10.3625 24.9 9.93025 24.6111C9.5156 24.3038 9.16446 23.9191 8.89625 23.4781C8.77622 23.2929 8.64198 23.1173 8.49475 22.9529C8.33943 22.78 8.16817 22.6221 7.98325 22.4813C7.80098 22.3451 7.60118 22.2341 7.38925 22.1513C7.18073 22.0598 6.95555 22.0125 6.72788 22.0124C6.67288 22.0138 6.61787 22.0192 6.56287 22.0261C6.48776 22.0259 6.41292 22.0351 6.34013 22.0536C6.27614 22.0704 6.21563 22.0983 6.16137 22.1361C6.13671 22.1497 6.11608 22.1696 6.10159 22.1938C6.0871 22.2179 6.07926 22.2455 6.07888 22.2736C6.08465 22.3398 6.10488 22.4039 6.13815 22.4614C6.17141 22.5189 6.21689 22.5684 6.27137 22.6064C6.39925 22.7081 6.50513 22.7865 6.59038 22.8415L6.63162 22.8704C6.8145 23.012 6.9905 23.1646 7.15687 23.3282C7.31087 23.463 7.44975 23.6156 7.56938 23.782C7.69313 23.9456 7.80038 24.1203 7.887 24.3059C7.98738 24.4901 8.09325 24.7019 8.20463 24.9425C8.46313 25.5942 8.92237 26.1456 9.51638 26.5169C10.1393 26.851 10.8378 27.0174 11.5459 26.9995C11.7851 26.9995 12.0257 26.9858 12.2636 26.9583C12.5001 26.9198 12.7353 26.8799 12.9718 26.8331V29.2297C12.976 29.3264 12.9599 29.4228 12.9243 29.5128C12.8888 29.6027 12.8347 29.6842 12.7655 29.7518C12.6963 29.8194 12.6137 29.8717 12.5229 29.9052C12.4322 29.9386 12.3354 29.9526 12.2389 29.9461H12.1536C8.94718 28.9103 6.21591 26.7637 4.45165 23.8928C2.6874 21.022 2.00608 17.6156 2.53039 14.287C3.05469 10.9585 4.75018 7.92646 7.31152 5.737C9.87287 3.54753 13.1318 2.34447 16.5014 2.34447C19.871 2.34447 23.1299 3.54753 25.6912 5.737C28.2526 7.92646 29.9481 10.9585 30.4724 14.287C30.9967 17.6156 30.3154 21.022 28.5511 23.8928C26.7868 26.7637 24.0556 28.9103 20.8491 29.9461V29.953V29.9516Z" fill="black"/>
</svg>
