<svg width="33" height="33" viewBox="0 0 33 33" fill="none" xmlns="http://www.w3.org/2000/svg">
<path d="M16.5 8.28798C21.0444 8.28798 24.712 11.9556 24.712 16.5C24.712 21.0444 21.0444 24.712 16.5 24.712C11.9556 24.712 8.28799 21.0444 8.28799 16.5C8.28799 11.9556 11.9556 8.28798 16.5 8.28798ZM16.5 21.8372C19.4389 21.8372 21.8372 19.4389 21.8372 16.5C21.8372 13.5611 19.4389 11.1628 16.5 11.1628C13.5611 11.1628 11.1628 13.5611 11.1628 16.5C11.1628 19.4389 13.5611 21.8372 16.5 21.8372ZM7.95166 6.03779C9.0127 6.03779 9.86953 6.89463 9.86953 7.95566C9.86953 9.0167 9.0127 9.87353 7.95166 9.87353C6.89063 9.87353 6.03379 9.0207 6.03379 7.95566C6.03347 7.70371 6.08287 7.45418 6.17914 7.22135C6.27541 6.98852 6.41666 6.77697 6.59482 6.59882C6.77297 6.42066 6.98452 6.27941 7.21735 6.18314C7.45018 6.08687 7.69971 6.03747 7.95166 6.03779V6.03779ZM0.492383 16.5C0.492383 14.2898 0.472363 12.0997 0.596484 9.89355C0.720605 7.33105 1.30518 5.05683 3.179 3.18301C5.05684 1.30517 7.32705 0.724607 9.88955 0.600486C12.0997 0.476365 14.2898 0.496384 16.496 0.496384C18.7062 0.496384 20.8963 0.476365 23.1024 0.600486C25.6649 0.724607 27.9392 1.30918 29.813 3.18301C31.6908 5.06084 32.2714 7.33105 32.3955 9.89355C32.5196 12.1037 32.4996 14.2938 32.4996 16.5C32.4996 18.7061 32.5196 20.9003 32.3955 23.1064C32.2714 25.6689 31.6868 27.9432 29.813 29.817C27.9352 31.6948 25.6649 32.2754 23.1024 32.3995C20.8923 32.5236 18.7022 32.5036 16.496 32.5036C14.2858 32.5036 12.0957 32.5236 9.88955 32.3995C7.32705 32.2754 5.05283 31.6908 3.179 29.817C1.30117 27.9392 0.720605 25.6689 0.596484 23.1064C0.468359 20.9003 0.492383 18.7102 0.492383 16.5V16.5ZM4.01582 25.9412C4.30811 26.6699 4.66045 27.2144 5.225 27.775C5.78955 28.3395 6.33008 28.6919 7.05879 28.9842C9.16484 29.821 14.1657 29.6328 16.5 29.6328C18.8343 29.6328 23.8392 29.821 25.9452 28.9882C26.6739 28.6959 27.2185 28.3435 27.779 27.779C28.3436 27.2144 28.6959 26.6739 28.9882 25.9452C29.821 23.8352 29.6328 18.8343 29.6328 16.5C29.6328 14.1657 29.821 9.16084 28.9882 7.05478C28.6959 6.32607 28.3436 5.78154 27.779 5.22099C27.2145 4.66045 26.6739 4.3041 25.9452 4.01181C23.8392 3.179 18.8343 3.36718 16.5 3.36718C14.1657 3.36718 9.16084 3.179 7.05478 4.01181C6.32607 4.3041 5.78154 4.65644 5.221 5.22099C4.65644 5.78554 4.3041 6.32607 4.01182 7.05478C3.179 9.16084 3.36719 14.1657 3.36719 16.5C3.36719 18.8343 3.179 23.8352 4.01582 25.9412Z" fill="black"/>
</svg>
