<svg width="32" height="33" viewBox="0 0 32 33" fill="none" xmlns="http://www.w3.org/2000/svg">
<path d="M29.1133 0.875H2.88672C1.5 0.875 0.375 2 0.375 3.38672V29.6133C0.375 31 1.5 32.125 2.88672 32.125H29.1133C30.5 32.125 31.625 31 31.625 29.6133V3.38672C31.625 2 30.5 0.875 29.1133 0.875V0.875ZM29.1133 29.625C11.6211 29.6211 2.875 29.6172 2.875 29.6133C2.87891 12.1211 2.88281 3.375 2.88672 3.375C20.3789 3.37891 29.125 3.38281 29.125 3.38672C29.1211 20.8789 29.1172 29.625 29.1133 29.625ZM5.00781 12.5898H9.64453V27.5039H5.00781V12.5898ZM7.32812 10.5508C8.80859 10.5508 10.0156 9.34766 10.0156 7.86328C10.0156 7.51035 9.94611 7.16088 9.81105 6.83482C9.67599 6.50876 9.47803 6.21249 9.22847 5.96293C8.97892 5.71337 8.68265 5.51541 8.35659 5.38035C8.03052 5.2453 7.68105 5.17578 7.32812 5.17578C6.9752 5.17578 6.62573 5.2453 6.29966 5.38035C5.9736 5.51541 5.67733 5.71337 5.42778 5.96293C5.17822 6.21249 4.98026 6.50876 4.8452 6.83482C4.71014 7.16088 4.64062 7.51035 4.64062 7.86328C4.63672 9.34766 5.83984 10.5508 7.32812 10.5508ZM17.1836 20.125C17.1836 18.1797 17.5547 16.2969 19.9648 16.2969C22.3398 16.2969 22.375 18.5195 22.375 20.25V27.5039H27.0078V19.3242C27.0078 15.3086 26.1406 12.2187 21.4492 12.2187C19.1953 12.2187 17.6836 13.457 17.0625 14.6289H17V12.5898H12.5508V27.5039H17.1836V20.125Z" fill="black"/>
</svg>
